<svg width="30" height="30" viewBox="0 0 30 30" fill="none" xmlns="http://www.w3.org/2000/svg">
<g opacity="0.8" clip-path="url(#clip0)">
<g filter="url(#filter0_d)">
<path d="M24.9764 0H17.4125C16.8472 0 16.3889 0.458271 16.3889 1.02361C16.3889 1.58895 16.8472 2.04722 17.4125 2.04722H22.5051L14.2998 10.2526C13.9001 10.6524 13.9001 11.3005 14.2998 11.7002C14.6995 12.0999 15.3476 12.1 15.7474 11.7002L23.9528 3.49482V8.58744C23.9528 9.15278 24.4111 9.61105 24.9764 9.61105C25.5417 9.61105 26 9.15278 26 8.58744V1.02361C26 0.466511 25.5473 0 24.9764 0Z" fill="white"/>
</g>
<g filter="url(#filter1_d)">
<path d="M10.9805 15.2814C10.6053 14.9062 9.99704 14.9062 9.62191 15.2814L1.92129 22.982V18.2026C1.92129 17.6721 1.49121 17.242 0.960645 17.242C0.430081 17.242 0 17.6721 0 18.2026V25.3012C0 25.8231 0.425229 26.2618 0.960645 26.2618H8.05923C8.5898 26.2618 9.01988 25.8317 9.01988 25.3012C9.01988 24.7706 8.5898 24.3405 8.05923 24.3405H3.27983L10.9805 16.6399C11.3556 16.2647 11.3556 15.6565 10.9805 15.2814Z" fill="white"/>
</g>
</g>
<defs>
<filter id="filter0_d" x="12" y="-2" width="16" height="16" filterUnits="userSpaceOnUse" color-interpolation-filters="sRGB">
<feFlood flood-opacity="0" result="BackgroundImageFix"/>
<feColorMatrix in="SourceAlpha" type="matrix" values="0 0 0 0 0 0 0 0 0 0 0 0 0 0 0 0 0 0 127 0"/>
<feOffset/>
<feGaussianBlur stdDeviation="1"/>
<feColorMatrix type="matrix" values="0 0 0 0 0 0 0 0 0 0 0 0 0 0 0 0 0 0 0.65 0"/>
<feBlend mode="normal" in2="BackgroundImageFix" result="effect1_dropShadow"/>
<feBlend mode="normal" in="SourceGraphic" in2="effect1_dropShadow" result="shape"/>
</filter>
<filter id="filter1_d" x="-2" y="13" width="15.2618" height="15.2618" filterUnits="userSpaceOnUse" color-interpolation-filters="sRGB">
<feFlood flood-opacity="0" result="BackgroundImageFix"/>
<feColorMatrix in="SourceAlpha" type="matrix" values="0 0 0 0 0 0 0 0 0 0 0 0 0 0 0 0 0 0 127 0"/>
<feOffset/>
<feGaussianBlur stdDeviation="1"/>
<feColorMatrix type="matrix" values="0 0 0 0 0 0 0 0 0 0 0 0 0 0 0 0 0 0 0.65 0"/>
<feBlend mode="normal" in2="BackgroundImageFix" result="effect1_dropShadow"/>
<feBlend mode="normal" in="SourceGraphic" in2="effect1_dropShadow" result="shape"/>
</filter>
<clipPath id="clip0">
<rect width="30" height="30" fill="white"/>
</clipPath>
</defs>
</svg>
