<svg width="210" height="210" viewBox="0 0 210 210" fill="none" xmlns="http://www.w3.org/2000/svg">
<path d="M105 210C84.0772 210.034 63.6259 203.787 46.293 192.068C29.4111 180.671 16.1967 164.623 8.25103 145.868C1.44128 129.778 -1.24007 112.241 0.45062 94.8505C2.14131 77.4604 8.15044 60.7684 17.932 46.291C29.3288 29.409 45.377 16.1946 64.132 8.24897C80.2224 1.43912 97.7594 -1.24227 115.15 0.448418C132.54 2.13911 149.232 8.14829 163.709 17.93C180.591 29.3268 193.805 45.3749 201.751 64.13C208.561 80.2204 211.242 97.7573 209.552 115.147C207.861 132.538 201.852 149.23 192.07 163.707C180.673 180.589 164.625 193.803 145.87 201.749C132.941 207.221 119.04 210.027 105 210V210ZM105.5 53C95.1165 53 84.9662 56.079 76.3326 61.8478C67.699 67.6166 60.97 75.816 56.9964 85.4091C53.0228 95.0022 51.9831 105.558 54.0088 115.742C56.0345 125.926 61.0347 135.281 68.3769 142.623C75.7192 149.965 85.0738 154.965 95.2578 156.991C105.442 159.017 115.998 157.977 125.591 154.004C135.184 150.03 143.383 143.301 149.152 134.667C154.921 126.034 158 115.883 158 105.5C157.984 91.5809 152.448 78.2364 142.606 68.3941C132.764 58.5518 119.419 53.0156 105.5 53V53Z" fill="white"/>
</svg>
