<svg width="20" height="20" viewBox="0 0 20 20" fill="none" xmlns="http://www.w3.org/2000/svg">
<path d="M14.0543 9.19414L8.65852 6.12319C8.08616 5.79644 7.50262 6.15379 7.50262 6.7964V13.2073C7.50262 13.7517 7.85706 14 8.18648 14C8.34161 14 8.49966 13.951 8.65666 13.8555L14.0766 10.5379C14.3491 10.3705 14.5021 10.1228 14.4973 9.85803C14.4928 9.59301 14.3316 9.35087 14.0543 9.19414ZM13.7134 9.94531L8.29371 13.2621C8.25726 13.2845 8.22852 13.2957 8.20883 13.3012C8.20351 13.2815 8.19818 13.2512 8.19818 13.2073V6.79667C8.19818 6.73068 8.21016 6.69742 8.21016 6.68917C8.23145 6.6905 8.2687 6.70141 8.31553 6.72802L13.7105 9.79896C13.777 9.83701 13.7967 9.87001 13.8031 9.86282C13.7996 9.87187 13.777 9.90566 13.7134 9.94531Z" fill="#010002"/>
<rect x="0.5" y="0.5" width="19" height="19" rx="7.5" stroke="black"/>
</svg>
