<svg width="20" height="20" viewBox="0 0 20 20" fill="none" xmlns="http://www.w3.org/2000/svg">
<path d="M16.875 0H3.125C1.40188 0 0 1.40188 0 3.125V4.6875C0 5.11898 0.349766 5.46875 0.78125 5.46875C1.21273 5.46875 1.5625 5.11898 1.5625 4.6875V3.125C1.5625 2.26344 2.26344 1.5625 3.125 1.5625H16.875C17.7366 1.5625 18.4375 2.26344 18.4375 3.125V16.875C18.4375 17.7366 17.7366 18.4375 16.875 18.4375H3.125C2.26344 18.4375 1.5625 17.7366 1.5625 16.875V15.3125C1.5625 14.881 1.21273 14.5312 0.78125 14.5312C0.349766 14.5312 0 14.881 0 15.3125V16.875C0 18.5981 1.40188 20 3.125 20H16.875C18.5981 20 20 18.5981 20 16.875V3.125C20 1.40188 18.5981 0 16.875 0Z" fill="black"/>
<path d="M13.1218 8.34245L10.2006 5.42385C9.89537 5.11889 9.40072 5.11912 9.09576 5.42436C8.7908 5.72959 8.79103 6.22424 9.09626 6.5292L12.0173 9.44752C12.3219 9.75213 12.3219 10.2478 12.0173 10.5524C12.0161 10.5535 12.015 10.5547 12.0139 10.5558L9.09263 13.5135C8.78943 13.8205 8.79248 14.3151 9.09947 14.6183C9.25169 14.7687 9.45009 14.8437 9.64841 14.8437C9.84997 14.8437 10.0515 14.7662 10.2043 14.6115L13.124 11.6553C14.036 10.7414 14.0353 9.25592 13.1218 8.34245Z" fill="black"/>
<path d="M9.10156 9.21875H0.78125C0.349766 9.21875 0 9.56852 0 10C0 10.4315 0.349766 10.7812 0.78125 10.7812H9.10156C9.53305 10.7812 9.88281 10.4315 9.88281 10C9.88281 9.56852 9.53305 9.21875 9.10156 9.21875Z" fill="black"/>
</svg>
