<svg width="120" height="240" viewBox="0 0 120 240" fill="none" xmlns="http://www.w3.org/2000/svg">
<path id="top" d="M120 120C120 112.121 118.448 104.319 115.433 97.039C112.417 89.7595 107.998 83.1451 102.426 77.5736C96.8549 72.0021 90.2405 67.5825 82.961 64.5672C75.6815 61.5519 67.8793 60 60 60L60 120H120Z" fill="#C4C4C4"/>
<path id="top" d="M60 120C52.1207 120 44.3185 118.448 37.039 115.433C29.7594 112.417 23.1451 107.998 17.5736 102.426C12.0021 96.8549 7.58249 90.2405 4.56721 82.961C1.55193 75.6814 -6.32454e-06 67.8793 0 60L60 60L60 120Z" fill="#C4C4C4"/>
<path id="bottom" d="M60 180C67.8793 180 75.6815 178.448 82.961 175.433C90.2405 172.417 96.8549 167.998 102.426 162.426C107.998 156.855 112.417 150.241 115.433 142.961C118.448 135.681 120 127.879 120 120L60 120L60 180Z" fill="#C4C4C4"/>
<path id="bottom" d="M0 180C1.39116e-06 164.087 6.3214 148.826 17.5736 137.574C28.8257 126.321 44.087 120 59.9999 120L60 180L0 180Z" fill="#C4C4C4"/>
</svg>
