<svg width="30" height="24" viewBox="0 0 30 24" fill="none" xmlns="http://www.w3.org/2000/svg">
<path d="M15.009 21.3517C15.009 21.8801 14.7037 22.3603 14.2258 22.5844C14.041 22.6718 13.8431 22.714 13.6464 22.714C13.3349 22.714 13.0263 22.6069 12.777 22.4003L5.32911 16.2286H1.36235C0.610073 16.2292 0 15.6188 0 14.8666V9.43877C0 8.68618 0.610073 8.0761 1.36235 8.0761H5.32943L12.7774 1.90443C13.1843 1.56715 13.7486 1.49524 14.2261 1.72096C14.7037 1.94506 15.0094 2.42551 15.0094 2.95368L15.009 21.3517ZM20.2446 19.2228C20.2114 19.2251 20.1795 19.2264 20.1466 19.2264C19.7868 19.2264 19.4398 19.0842 19.1835 18.8275L19.0013 18.6447C18.5234 18.1678 18.4673 17.4123 18.8697 16.8699C19.8899 15.4944 20.4284 13.8637 20.4284 12.1531C20.4284 10.3133 19.8171 8.58751 18.6601 7.16228C18.2197 6.62057 18.2603 5.83379 18.7539 5.34045L18.9358 5.15826C19.208 4.88612 19.5726 4.73779 19.9673 4.76133C20.3517 4.78068 20.7106 4.96157 20.9543 5.25951C22.5592 7.22323 23.4069 9.60742 23.4069 12.1535C23.4069 14.5248 22.6572 16.7819 21.2384 18.6798C21.0014 18.9962 20.639 19.1948 20.2446 19.2228ZM25.8772 23.4331C25.6308 23.7242 25.2745 23.899 24.8931 23.9151C24.8743 23.9158 24.8553 23.9164 24.836 23.9164C24.4752 23.9164 24.1289 23.7739 23.8725 23.5175L23.6935 23.3386C23.1934 22.8388 23.1596 22.0394 23.6142 21.4984C25.8114 18.8852 27.0219 15.5666 27.0219 12.1531C27.0219 8.60266 25.7259 5.18471 23.3737 2.52902C22.8968 1.98988 22.921 1.17376 23.4285 0.664294L23.6071 0.485335C23.8722 0.218992 24.2166 0.072278 24.6116 0.0848535C24.9866 0.0954943 25.3413 0.261233 25.5905 0.541764C28.4339 3.74304 30 7.86716 30 12.1531C30.0006 16.2769 28.5364 20.2831 25.8772 23.4331Z" fill="white"/>
</svg>
